<svg xmlns="http://www.w3.org/2000/svg" viewBox="0 0 64 64">
  <rect width="64" height="64" rx="14" fill="#000"/>
  <path d="M32 10c12.15 0 22 9.85 22 22s-9.85 22-22 22c-4.61 0-8.89-1.41-12.44-3.82l8.92-8.92A8 8 0 1 0 20 32a8 8 0 0 0 1.66 4.85l-8.9 8.9A21.84 21.84 0 0 1 10 32c0-12.15 9.85-22 22-22zm18 22c0 2.28-.35 4.47-1.01 6.52l-6.42-3.7A2 2 0 0 0 40 37V27a2 2 0 0 0-1.43-1.92l-6.57-1.89V18a2 2 0 0 1 2-2c9.94 0 18 8.06 18 18zm-26.5-2.5a2.5 2.5 0 1 1 0 5 2.5 2.5 0 0 1 0-5z" fill="#ffd54a"/>
</svg>
